HIERARCHY
ROOT hip
{
  OFFSET 40.6541 80.7625 -253.182
  CHANNELS 6 Xposition Yposition Zposition Zrotation Xrotation Yrotation
  JOINT abdomen
  {
    OFFSET 0 20.6881 -0.73152
    CHANNELS 3 Zrotation Xrotation Yrotation
    JOINT chest
    {
      OFFSET 0 11.7043 -0.48768
      CHANNELS 3 Zrotation Xrotation Yrotation
      JOINT neck
      {
        OFFSET 0 22.1894 -2.19456
        CHANNELS 3 Zrotation Xrotation Yrotation
        JOINT head
        {
          OFFSET -0.24384 7.07133 1.2192
          CHANNELS 3 Zrotation Xrotation Yrotation
          JOINT leftEye
          {
            OFFSET 4.14528 8.04674 8.04672
            CHANNELS 3 Zrotation Xrotation Yrotation
            End Site
            {
              OFFSET 1 0 0
            }
          }
          JOINT rightEye
          {
            OFFSET -3.6576 8.04674 8.04672
            CHANNELS 3 Zrotation Xrotation Yrotation
            End Site
            {
              OFFSET 1 0 0
            }
          }
        }
      }
      JOINT rCollar
      {
        OFFSET -2.68224 19.2634 -4.8768
        CHANNELS 3 Zrotation Xrotation Yrotation
        JOINT rShldr
        {
          OFFSET -8.77824 -1.95073 1.46304
          CHANNELS 3 Zrotation Xrotation Yrotation
          JOINT rForeArm
          {
            OFFSET -28.1742 -1.7115 0.48768
            CHANNELS 3 Zrotation Xrotation Yrotation
            JOINT rHand
            {
              OFFSET -22.5879 0.773209 7.07136
              CHANNELS 3 Zrotation Xrotation Yrotation
              JOINT rThumb1
              {
                OFFSET -1.2192 -0.487915 3.41376
                CHANNELS 3 Zrotation Xrotation Yrotation
                JOINT rThumb2
                {
                  OFFSET -3.37035 -0.52449 3.41376
                  CHANNELS 3 Zrotation Xrotation Yrotation
                  End Site
                  {
                    OFFSET -1.78271 -1.18214 1.43049
                  }
                }
              }
              JOINT rIndex1
              {
                OFFSET -7.75947 0.938293 5.60832
                CHANNELS 3 Zrotation Xrotation Yrotation
                JOINT rIndex2
                {
                  OFFSET -2.54057 -0.884171 1.56538
                  CHANNELS 3 Zrotation Xrotation Yrotation
                  End Site
                  {
                    OFFSET -1.62519 -0.234802 1.16502
                  }
                }
              }
              JOINT rMid1
              {
                OFFSET -8.24714 1.18213 3.41376
                CHANNELS 3 Zrotation Xrotation Yrotation
                JOINT rMid2
                {
                  OFFSET -3.10165 -0.590103 1.0647
                  CHANNELS 3 Zrotation Xrotation Yrotation
                  End Site
                  {
                    OFFSET -2.48547 -0.328903 0.83742
                  }
                }
              }
              JOINT rRing1
              {
                OFFSET -8.82822 0.546677 1.51678
                CHANNELS 3 Zrotation Xrotation Yrotation
                JOINT rRing2
                {
                  OFFSET -2.60934 -0.819778 -0.0198488
                  CHANNELS 3 Zrotation Xrotation Yrotation
                  End Site
                  {
                    OFFSET -2.33842 -0.294052 0.168128
                  }
                }
              }
              JOINT rPinky1
              {
                OFFSET -8.27202 -0.0477905 -0.4584
                CHANNELS 3 Zrotation Xrotation Yrotation
                JOINT rPinky2
                {
                  OFFSET -1.82734 -0.647385 -0.700984
                  CHANNELS 3 Zrotation Xrotation Yrotation
                  End Site
                  {
                    OFFSET -1.69225 -0.51767 -0.607171
                  }
                }
              }
            }
          }
        }
      }
      JOINT lCollar
      {
        OFFSET 2.68224 19.2634 -4.8768
        CHANNELS 3 Zrotation Xrotation Yrotation
        JOINT lShldr
        {
          OFFSET 8.77824 -1.95073 1.46304
          CHANNELS 3 Zrotation Xrotation Yrotation
          JOINT lForeArm
          {
            OFFSET 28.1742 -1.7115 0.48768
            CHANNELS 3 Zrotation Xrotation Yrotation
            JOINT lHand
            {
              OFFSET 22.5879 0.773209 7.07136
              CHANNELS 3 Zrotation Xrotation Yrotation
              JOINT lThumb1
              {
                OFFSET 1.2192 -0.487915 3.41376
                CHANNELS 3 Zrotation Xrotation Yrotation
                JOINT lThumb2
                {
                  OFFSET 3.37035 -0.52449 3.41376
                  CHANNELS 3 Zrotation Xrotation Yrotation
                  End Site
                  {
                    OFFSET 1.78271 -1.18214 1.43049
                  }
                }
              }
              JOINT lIndex1
              {
                OFFSET 7.75947 0.938293 5.60832
                CHANNELS 3 Zrotation Xrotation Yrotation
                JOINT lIndex2
                {
                  OFFSET 2.54057 -0.884171 1.56538
                  CHANNELS 3 Zrotation Xrotation Yrotation
                  End Site
                  {
                    OFFSET 1.62519 -0.234802 1.16502
                  }
                }
              }
              JOINT lMid1
              {
                OFFSET 8.24714 1.18213 3.41376
                CHANNELS 3 Zrotation Xrotation Yrotation
                JOINT lMid2
                {
                  OFFSET 3.10165 -0.590103 1.0647
                  CHANNELS 3 Zrotation Xrotation Yrotation
                  End Site
                  {
                    OFFSET 2.48547 -0.328903 0.83742
                  }
                }
              }
              JOINT lRing1
              {
                OFFSET 8.82822 0.546677 1.51678
                CHANNELS 3 Zrotation Xrotation Yrotation
                JOINT lRing2
                {
                  OFFSET 2.60934 -0.819778 -0.0198488
                  CHANNELS 3 Zrotation Xrotation Yrotation
                  End Site
                  {
                    OFFSET 2.33842 -0.294052 0.168128
                  }
                }
              }
              JOINT lPinky1
              {
                OFFSET 8.27202 -0.0477905 -0.4584
                CHANNELS 3 Zrotation Xrotation Yrotation
                JOINT lPinky2
                {
                  OFFSET 1.82734 -0.647385 -0.700984
                  CHANNELS 3 Zrotation Xrotation Yrotation
                  End Site
                  {
                    OFFSET 1.69225 -0.51767 -0.607171
                  }
                }
              }
            }
          }
        }
      }
    }
  }
  JOINT rButtock
  {
    OFFSET -8.77824 4.35084 1.2192
    CHANNELS 3 Zrotation Xrotation Yrotation
    JOINT rThigh
    {
      OFFSET 0 -1.70687 -2.19456
      CHANNELS 3 Zrotation Xrotation Yrotation
      JOINT rShin
      {
        OFFSET 0 -36.8199 0.73152
        CHANNELS 3 Zrotation Xrotation Yrotation
        JOINT rFoot
        {
          OFFSET 0.73152 -45.1104 -5.12064
          CHANNELS 3 Zrotation Xrotation Yrotation
          End Site
          {
            OFFSET -1.1221 -3.69964 12.103
          }
        }
      }
    }
  }
  JOINT lButtock
  {
    OFFSET 8.77824 4.35084 1.2192
    CHANNELS 3 Zrotation Xrotation Yrotation
    JOINT lThigh
    {
      OFFSET 0 -1.70687 -2.19456
      CHANNELS 3 Zrotation Xrotation Yrotation
      JOINT lShin
      {
        OFFSET 0 -36.8199 0.73152
        CHANNELS 3 Zrotation Xrotation Yrotation
        JOINT lFoot
        {
          OFFSET -0.73152 -45.1104 -5.12064
          CHANNELS 3 Zrotation Xrotation Yrotation
          End Site
          {
            OFFSET 1.1221 -3.69964 12.103
          }
        }
      }
    }
  }
}
MOTION
Frames:	6
Frame Time:	0.00833333
49.7567 85.415 265.64 -1.27362 0.00383508 0.0239677 1.67532 -0.00249594 0.0455931 0.461915 0.00238601 0.079988 -2.03842e-014 -1.59028e-015 -2.23633e-016 -6.10455e-014 -6.36111e-015 -7.43889e-016 -0 0 0 -0 0 0 -9.94069e-015 3.37779e-017 9.93923e-017 -2.10016e-013 4.34841e-016 -2.18663e-015 -3.66882e-012 1.12293e-012 0 -4.19736e-011 -9.67982e-013 -6.01125e-013 -9.90176e-011 3.39327e-013 -1.2754e-012 -1.71003e-010 5.82042e-013 -2.20094e-012 -9.90103e-011 3.41512e-013 -1.28494e-012 7.73091 5.47488 0.417314 -9.90171e-011 3.39425e-013 -1.26904e-012 2.90554 0.965183 0.102902 -9.90087e-011 3.39922e-013 -1.2762e-012 10.2786 0.731801 0.0259123 -9.90234e-011 3.39524e-013 -1.26904e-012 2.22167 -0.733487 -0.20892 -9.93846e-015 3.88251e-017 -2.98177e-016 -2.15507e-013 6.33626e-016 -3.97569e-015 -3.66678e-012 -1.07344e-012 -1.90833e-014 -4.19823e-011 1.24002e-012 -5.69319e-013 -9.90265e-011 3.63116e-013 -1.29131e-012 -1.71012e-010 6.26569e-013 -2.22003e-012 -9.90309e-011 3.65764e-013 -1.28176e-012 -7.73091 5.47488 -0.417314 -9.90269e-011 3.63577e-013 -1.28494e-012 -2.90554 0.965183 -0.102902 -9.90358e-011 3.63677e-013 -1.28653e-012 -10.2786 0.731801 -0.0259123 -9.90206e-011 3.62186e-013 -1.29449e-012 -2.22167 -0.733487 0.20892 -2.03217e-016 0 -3.88251e-019 1.77189 -6.79364 -0.168055 0.0030566 6.74191 0.082981 -0.521109 0.0466364 0.0601234 2.03217e-016 0 3.88251e-019 0.778514 -1.92427 0.00414712 0.0090818 -2.07858 0.0748996 0.492587 3.99766 -0.137425 
49.6914 83.1438 265.609 -7.34775 6.68213 47.8316 3.02991 6.41669 0.842055 0.634403 -2.96462 0.319529 0.228619 3.44789 -1.65323 3.16263 -9.17249 -2.46314 -0 0 0 -0 0 0 6.86825e-014 3.66006e-014 5.65756e-014 -9.05134 -10.8105 9.2266 -5.82032 -3.06619 8.58778 0.0137559 -2.60217 -0.364349 -3.81847e-010 1.80295e-009 -5.22424e-011 -6.61307e-010 3.08187e-009 -9.17396e-011 -3.8184e-010 1.80296e-009 -5.22549e-011 7.73091 5.47488 0.417314 -3.81847e-010 1.80296e-009 -5.22389e-011 2.90554 0.965183 0.102902 -3.81838e-010 1.80296e-009 -5.22464e-011 10.2786 0.731801 0.0259123 -3.81852e-010 1.80296e-009 -5.224e-011 2.22167 -0.733487 -0.20892 6.87362e-014 3.66053e-014 5.62584e-014 18.2138 -14.3103 -2.05983 10.2446 -7.10773 -12.4618 -0.389481 -13.9229 1.75458 2.82607e-011 4.43141e-010 -6.02926e-010 7.07719e-011 7.06867e-010 -1.0332e-009 2.82555e-011 4.43143e-010 -6.02916e-010 -7.73091 5.47488 -0.417314 2.82606e-011 4.4314e-010 -6.02921e-010 -2.90554 0.965183 -0.102902 2.82526e-011 4.4314e-010 -6.02923e-010 -10.2786 0.731801 -0.0259123 2.82678e-011 4.43138e-010 -6.02932e-010 -2.22167 -0.733487 0.20892 -2.03217e-016 0 -3.88251e-019 0.621137 -25.1194 -1.5492 -0.0430044 25.1248 0.340585 -0.8262 -3.19595 -1.72938 2.03217e-016 0 3.88251e-019 -2.19633 -15.3874 1.95581 -0.00197172 10.8059 -0.102653 0.634114 0.405258 1.89165 
49.6213 81.8651 260.477 -18.8975 -2.59807 97.0257 4.19334 13.0956 1.71531 0.818809 -6.10757 0.573199 0.725425 7.08807 -3.424 5.60032 -18.7636 -5.29886 -0 0 0 -0 0 0 1.55537e-013 8.11183e-014 1.252e-013 -14.6709 -21.2594 19.9806 -11.0097 -6.0992 17.7812 -0.00783727 -5.35488 -0.752334 -6.82204e-010 3.98034e-009 -1.35135e-010 -1.18202e-009 6.80659e-009 -2.36573e-010 -6.82197e-010 3.98035e-009 -1.35151e-010 7.73091 5.47488 0.417314 -6.82205e-010 3.98036e-009 -1.35135e-010 2.90554 0.965183 0.102902 -6.82195e-010 3.98034e-009 -1.35143e-010 10.2786 0.731801 0.0259123 -6.82209e-010 3.98035e-009 -1.35138e-010 2.22167 -0.733487 -0.20892 1.55649e-013 8.11226e-014 1.24967e-013 36.2583 -29.4824 -4.71235 17.7303 -13.4712 -26.196 0.242226 -28.5771 3.98826 1.79994e-010 9.3626e-010 -1.32429e-009 3.59276e-010 1.48742e-009 -2.26923e-009 1.79988e-010 9.36262e-010 -1.32428e-009 -7.73091 5.47488 -0.417314 1.79994e-010 9.36259e-010 -1.32429e-009 -2.90554 0.965183 -0.102902 1.79987e-010 9.36258e-010 -1.32429e-009 -10.2786 0.731801 -0.0259123 1.80002e-010 9.36256e-010 -1.3243e-009 -2.22167 -0.733487 0.20892 -2.03217e-016 0 -3.88251e-019 -2.02151 -44.1977 -3.77365 -0.340033 44.7011 0.777881 -1.33337 -6.63367 -3.51825 2.03217e-016 0 3.88251e-019 -4.15721 -29.5325 4.47291 0.0821089 24.2336 -0.309912 1.02998 -3.24509 3.82217 
49.457 80.3577 255.173 -16.8115 -23.0282 138.2 5.17661 19.2393 2.56235 1.05463 -8.89789 0.807041 1.29027 10.3089 -5.03214 6.87797 -27.3009 -8.21528 -0 0 0 -0 0 0 2.25929e-013 1.09734e-013 1.69528e-013 -15.9562 -28.8473 31.4382 -14.7824 -8.37357 26.024 -0.0588006 -7.80523 -1.10213 -9.47506e-010 5.40818e-009 -1.54176e-010 -1.64192e-009 9.24444e-009 -2.70817e-010 -9.475e-010 5.40819e-009 -1.54195e-010 7.73091 5.47488 0.417314 -9.47507e-010 5.40821e-009 -1.54179e-010 2.90554 0.965183 0.102902 -9.47496e-010 5.40819e-009 -1.54187e-010 10.2786 0.731801 0.0259123 -9.4751e-010 5.4082e-009 -1.54182e-010 2.22167 -0.733487 -0.20892 2.26086e-013 1.09738e-013 1.69372e-013 50.6218 -42.6671 -8.15583 21.8491 -17.2559 -39.164 2.11502 -41.5844 6.83764 2.82835e-010 1.3287e-009 -1.8062e-009 5.5434e-010 2.11935e-009 -3.09515e-009 2.82828e-010 1.3287e-009 -1.80618e-009 -7.73091 5.47488 -0.417314 2.82835e-010 1.32869e-009 -1.80619e-009 -2.90554 0.965183 -0.102902 2.82829e-010 1.32869e-009 -1.8062e-009 -10.2786 0.731801 -0.0259123 2.82844e-010 1.32869e-009 -1.80621e-009 -2.22167 -0.733487 0.20892 -2.03217e-016 0 -3.88251e-019 -6.92731 -61.5518 -8.15415 -1.1438 61.8823 1.61335 -2.0504 -9.64366 -5.37653 2.03217e-016 0 3.88251e-019 -4.57818 -42.0863 7.62159 0.259136 36.5737 -0.563075 1.68233 -6.74223 5.99056 
49.4757 78.5244 250.549 -1.62769 -35.9508 171.729 6.09378 24.0589 3.23533 1.36628 -10.8073 0.983501 1.59271 12.5149 -6.1639 7.16741 -33.4103 -10.5688 -0 0 0 -0 0 0 2.55166e-013 9.85956e-014 1.53114e-013 -14.575 -32.5705 41.0049 -16.9167 -9.56763 31.6329 -0.112005 -9.50085 -1.34776 -1.12517e-009 4.96217e-009 -1.35873e-011 -1.94978e-009 8.46509e-009 -2.85852e-011 -1.12516e-009 4.96219e-009 -1.36064e-011 7.73091 5.47488 0.417314 -1.12517e-009 4.96221e-009 -1.35905e-011 2.90554 0.965183 0.102902 -1.12516e-009 4.96218e-009 -1.35985e-011 10.2786 0.731801 0.0259123 -1.12517e-009 4.9622e-009 -1.35937e-011 2.22167 -0.733487 -0.20892 2.5533e-013 9.85999e-014 1.53014e-013 58.903 -51.1237 -11.7257 23.6525 -18.4617 -48.5281 4.67555 -50.6357 9.86428 2.63445e-010 1.46942e-009 -1.68945e-009 5.15805e-010 2.37971e-009 -2.8958e-009 2.63439e-010 1.46942e-009 -1.68944e-009 -7.73091 5.47488 -0.417314 2.63446e-010 1.46942e-009 -1.68945e-009 -2.90554 0.965183 -0.102902 2.6344e-010 1.46942e-009 -1.68946e-009 -10.2786 0.731801 -0.0259123 2.63455e-010 1.46941e-009 -1.68947e-009 -2.22167 -0.733487 0.20892 -2.03217e-016 0 -3.88251e-019 -16.765 -74.6137 -18.0412 -2.60946 73.0812 3.00699 -2.91502 -11.608 -7.35136 2.03217e-016 0 3.88251e-019 -3.84622 -50.8717 10.7962 0.490434 46.1961 -0.854343 2.64061 -9.86418 8.73331 
49.5 76.4169 245.309 7.72922 -38.3601 -172.933 7.13797 27.1995 3.59999 1.7818 -11.4236 1.06714 1.35211 13.3631 -6.57234 7.10323 -36.2653 -11.4978 -0 0 0 -0 0 0 2.20667e-013 7.35009e-015 1.94324e-014 -13.2242 -33.3373 45.9142 -17.5079 -9.79566 33.4389 -0.138467 -10.2116 -1.45176 -1.21305e-009 9.82464e-010 4.9013e-010 -2.10168e-009 1.6134e-009 8.42055e-010 -1.21304e-009 9.82474e-010 4.90113e-010 7.73091 5.47488 0.417314 -1.21305e-009 9.82497e-010 4.90128e-010 2.90554 0.965183 0.102902 -1.21304e-009 9.82475e-010 4.90121e-010 10.2786 0.731801 0.0259123 -1.21305e-009 9.82486e-010 4.90127e-010 2.22167 -0.733487 -0.20892 2.20777e-013 7.35551e-015 1.9371e-014 61.1948 -53.1112 -13.4259 24.2501 -18.6519 -52.4008 6.27503 -54.5325 11.6279 -1.0822e-011 1.2943e-009 -4.09476e-010 -6.33746e-012 2.21834e-009 -7.04737e-010 -1.08274e-011 1.29431e-009 -4.09464e-010 -7.73091 5.47488 -0.417314 -1.08216e-011 1.2943e-009 -4.09472e-010 -2.90554 0.965183 -0.102902 -1.08264e-011 1.2943e-009 -4.09477e-010 -10.2786 0.731801 -0.0259123 -1.08141e-011 1.2943e-009 -4.09486e-010 -2.22167 -0.733487 0.20892 -2.03217e-016 0 -3.88251e-019 -34.2424 -81.4901 -36.8728 -3.19463 75.6186 3.4402 -3.861 -12.2036 -9.62228 2.03217e-016 0 3.88251e-019 -3.70139 -54.9718 12.228 0.699644 52.6772 -1.1389 4.1358 -12.4884 12.8124 
